<mxfile host="app.diagrams.net" modified="2024-06-18T17:25:44.663Z" agent="Mozilla/5.0 (X11; Linux x86_64) AppleWebKit/537.36 (KHTML, like Gecko) Chrome/126.0.0.0 Safari/537.36" version="24.5.5" etag="MDH6nlPN5vo6e7IeOjYO" type="github">
  <diagram name="Page-1" id="5_wePtFjKEjagGDOD_FK">
    <mxGraphModel>
      <root>
        <mxCell id="0" />
        <mxCell id="1" parent="0" />
      </root>
    </mxGraphModel>
  </diagram>
</mxfile>
